<svg width="83" height="83" viewBox="0 0 83 83" fill="none" xmlns="http://www.w3.org/2000/svg">
<path d="M0 41.5C0 18.5802 18.5802 0 41.5 0C64.4198 0 83 18.5802 83 41.5C83 64.4198 64.4198 83 41.5 83C18.5802 83 0 64.4198 0 41.5Z" fill="white"/>
<path fill-rule="evenodd" clip-rule="evenodd" d="M22.0983 39.0789C34.1964 33.808 42.2636 30.3331 46.3001 28.6541C57.8251 23.8605 60.2199 23.0278 61.7808 23.0003C62.1241 22.9942 62.8917 23.0793 63.3889 23.4828C63.8088 23.8235 63.9243 24.2837 63.9796 24.6067C64.0348 24.9297 64.1037 25.6654 64.049 26.2404C63.4244 32.8025 60.722 48.7271 59.3472 56.0768C58.7655 59.1867 57.62 60.2294 56.5111 60.3315C54.1011 60.5533 52.2711 58.7388 49.9369 57.2087C46.2843 54.8144 44.2209 53.324 40.6755 50.9876C36.5781 48.2875 39.2342 46.8035 41.5693 44.3782C42.1804 43.7435 52.7989 34.0852 53.0044 33.209C53.0301 33.0994 53.0539 32.691 52.8113 32.4753C52.5686 32.2596 52.2105 32.3334 51.952 32.392C51.5857 32.4752 45.7507 36.3319 34.4471 43.9622C32.7909 45.0995 31.2907 45.6536 29.9466 45.6246C28.4648 45.5925 25.6145 44.7867 23.4956 44.098C20.8966 43.2531 18.8311 42.8065 19.0109 41.3717C19.1046 40.6244 20.1337 39.8602 22.0983 39.0789Z" fill="#CA6035"/>
</svg>
