<svg width="83" height="83" viewBox="0 0 83 83" fill="none" xmlns="http://www.w3.org/2000/svg">
<g clip-path="url(#clip0_68_2183)">
<path d="M0 39.84C0 21.0592 0 11.6689 5.83443 5.83443C11.6689 0 21.0592 0 39.84 0H43.16C61.9408 0 71.3311 0 77.1656 5.83443C83 11.6689 83 21.0592 83 39.84V43.16C83 61.9408 83 71.3311 77.1656 77.1656C71.3311 83 61.9408 83 43.16 83H39.84C21.0592 83 11.6689 83 5.83443 77.1656C0 71.3311 0 61.9408 0 43.16V39.84Z" fill="white"/>
<path d="M44.0204 59.7599C24.7371 59.7599 13.7383 46.6743 13.28 24.8999H22.9393C23.2566 40.8818 30.3775 47.6514 36.018 49.0472V24.8999H45.1136V38.6834C50.6836 38.0902 56.5349 31.8091 58.5091 24.8999H67.6045C66.0886 33.4143 59.7431 39.6953 55.2307 42.2776C59.7431 44.3713 66.9703 49.8498 69.72 59.7599H59.7078C57.5574 53.1299 52.1995 48.0003 45.1136 47.3024V59.7599H44.0204Z" fill="#CA6035"/>
</g>
<defs>
<clipPath id="clip0_68_2183">
<rect width="83" height="83" rx="39" fill="white"/>
</clipPath>
</defs>
</svg>
