<svg width="360" height="360" viewBox="0 0 360 360" fill="none" xmlns="http://www.w3.org/2000/svg">
<g clip-path="url(#clip0_68_1457)">
<path d="M360 0H0V360H360V0Z" fill="white"/>
<path d="M125.094 30.0787C125.094 31.1439 125.094 33.1371 125.094 34.3378C125.094 34.9302 125.094 35.3297 125.094 35.3297V35.7642V36.4966V37.2414H135.596V36.4966V35.7642V35.3297C135.596 35.3297 135.596 34.9271 135.596 34.3378C135.596 33.0634 135.596 30.9156 135.596 30.0787C135.596 27.1788 133.245 24.8276 130.345 24.8276C127.445 24.8276 125.094 27.1788 125.094 30.0787Z" fill="#CA6035"/>
<path d="M167.586 25.7834C170.486 25.7834 172.837 28.1344 172.837 31.0345C172.837 33.9347 170.486 36.2855 167.586 36.2855C164.686 36.2855 162.335 33.9347 162.335 31.0345C162.335 28.1344 164.686 25.7834 167.586 25.7834Z" fill="#CA6035"/>
<path d="M187.163 30.0787C187.163 31.1439 187.163 33.1371 187.163 34.3378C187.163 34.9302 187.163 35.3297 187.163 35.3297V35.7642V36.4966V37.2414H197.665V36.4966V35.7642V35.3297C197.665 35.3297 197.665 34.9271 197.665 34.3378C197.665 33.0634 197.665 30.9156 197.665 30.0787C197.665 27.1788 195.314 24.8276 192.414 24.8276C189.514 24.8276 187.163 27.1788 187.163 30.0787Z" fill="#CA6035"/>
<path d="M125.094 43.4484V49.6552H135.596V43.4484V37.2415H125.094V43.4484Z" fill="#CA6035"/>
<path d="M137.508 42.4925C137.508 43.5578 137.508 45.551 137.508 46.7517C137.508 47.344 137.508 47.7435 137.508 47.7435V48.178V48.9104V49.6552H148.01V48.9104V48.178V47.7435C148.01 47.7435 148.01 47.3409 148.01 46.7517C148.01 45.4772 148.01 43.3294 148.01 42.4925C148.01 39.5926 145.658 37.2415 142.759 37.2415C139.859 37.2415 137.508 39.5926 137.508 42.4925Z" fill="#CA6035"/>
<path d="M187.163 43.4484V49.6552H197.665V43.4484V37.2415H187.163V43.4484Z" fill="#CA6035"/>
<path d="M204.828 38.1973C207.728 38.1973 210.079 40.5483 210.079 43.4483C210.079 46.3485 207.728 48.6993 204.828 48.6993C201.928 48.6993 199.577 46.3485 199.577 43.4483C199.577 40.5483 201.928 38.1973 204.828 38.1973Z" fill="#CA6035"/>
<path d="M229.655 38.1973C232.555 38.1973 234.906 40.5483 234.906 43.4483C234.906 46.3485 232.555 48.6993 229.655 48.6993C226.755 48.6993 224.404 46.3485 224.404 43.4483C224.404 40.5483 226.755 38.1973 229.655 38.1973Z" fill="#CA6035"/>
<path d="M135.596 56.818C135.596 55.7528 135.596 53.7596 135.596 52.5589C135.596 51.9665 135.596 51.567 135.596 51.567V51.1325V50.4001V49.6553H125.094V50.4001V51.1325V51.567C125.094 51.567 125.094 51.9696 125.094 52.5589C125.094 53.8333 125.094 55.9811 125.094 56.818C125.094 59.7179 127.445 62.0691 130.345 62.0691C133.245 62.0691 135.596 59.7179 135.596 56.818Z" fill="#CA6035"/>
<path d="M137.508 55.8622V62.0691H148.01V55.8622V49.6553H137.508V55.8622Z" fill="#CA6035"/>
<path d="M180 50.6111C182.9 50.6111 185.251 52.9621 185.251 55.8621C185.251 58.7623 182.9 61.1132 180 61.1132C177.1 61.1132 174.749 58.7623 174.749 55.8621C174.749 52.9621 177.1 50.6111 180 50.6111Z" fill="#CA6035"/>
<path d="M187.163 55.8622V62.0691H197.665V55.8622V49.6553H187.163V55.8622Z" fill="#CA6035"/>
<path d="M217.241 50.6111C220.142 50.6111 222.492 52.9621 222.492 55.8621C222.492 58.7623 220.142 61.1132 217.241 61.1132C214.341 61.1132 211.99 58.7623 211.99 55.8621C211.99 52.9621 214.341 50.6111 217.241 50.6111Z" fill="#CA6035"/>
<path d="M148.01 69.2319C148.01 68.1666 148.01 66.1734 148.01 64.9727C148.01 64.3804 148.01 63.9808 148.01 63.9808V63.5463V62.8139V62.0691H137.508V62.8139V63.5463V63.9808C137.508 63.9808 137.508 64.3834 137.508 64.9727C137.508 66.2471 137.508 68.3949 137.508 69.2319C137.508 72.1317 139.859 74.4829 142.759 74.4829C145.659 74.4829 148.01 72.1317 148.01 69.2319Z" fill="#CA6035"/>
<path d="M149.921 67.3201C149.921 68.3854 149.921 70.3786 149.921 71.5793C149.921 72.1716 149.921 72.5712 149.921 72.5712V73.0056V73.7381V74.4829H160.423V73.7381V73.0056V72.5712C160.423 72.5712 160.423 72.1686 160.423 71.5793C160.423 70.3048 160.423 68.1571 160.423 67.3201C160.423 64.4202 158.072 62.0691 155.172 62.0691C152.272 62.0691 149.921 64.4202 149.921 67.3201Z" fill="#CA6035"/>
<path d="M187.163 68.276V74.4829H197.665V68.276V62.0691H187.163V68.276Z" fill="#CA6035"/>
<path d="M130.345 75.4387C133.245 75.4387 135.596 77.7897 135.596 80.6898C135.596 83.5899 133.245 85.9408 130.345 85.9408C127.445 85.9408 125.094 83.5899 125.094 80.6898C125.094 77.7897 127.445 75.4387 130.345 75.4387Z" fill="#CA6035"/>
<path d="M149.921 80.6898V86.8967H160.423V80.6898V74.4829H149.921V80.6898Z" fill="#CA6035"/>
<path d="M197.665 81.6457C197.665 80.5804 197.665 78.5872 197.665 77.3865C197.665 76.7942 197.665 76.3946 197.665 76.3946V75.9602V75.2277V74.4829H187.163V75.2277V75.9602V76.3946C187.163 76.3946 187.163 76.7972 187.163 77.3865C187.163 78.6609 187.163 80.8087 187.163 81.6457C187.163 84.5456 189.514 86.8967 192.414 86.8967C195.314 86.8967 197.665 84.5456 197.665 81.6457Z" fill="#CA6035"/>
<path d="M224.404 79.7339C224.404 80.7992 224.404 82.7924 224.404 83.9931C224.404 84.5854 224.404 84.985 224.404 84.985V85.4195V86.1519V86.8967H234.906V86.1519V85.4195V84.985C234.906 84.985 234.906 84.5824 234.906 83.9931C234.906 82.7187 234.906 80.5709 234.906 79.7339C234.906 76.8341 232.555 74.4829 229.655 74.4829C226.755 74.4829 224.404 76.8341 224.404 79.7339Z" fill="#CA6035"/>
<path d="M142.759 87.8525C145.659 87.8525 148.01 90.2035 148.01 93.1036C148.01 96.0038 145.659 98.3546 142.759 98.3546C139.859 98.3546 137.508 96.0038 137.508 93.1036C137.508 90.2035 139.859 87.8525 142.759 87.8525Z" fill="#CA6035"/>
<path d="M149.921 93.1034V99.3103H160.423V93.1034V86.8965H149.921V93.1034Z" fill="#CA6035"/>
<path d="M174.749 92.1475C174.749 93.2128 174.749 95.206 174.749 96.4067C174.749 96.999 174.749 97.3986 174.749 97.3986V97.833V98.5655V99.3103H185.251V98.5655V97.833V97.3986C185.251 97.3986 185.251 96.9959 185.251 96.4067C185.251 95.1322 185.251 92.9845 185.251 92.1475C185.251 89.2476 182.9 86.8965 180 86.8965C177.1 86.8965 174.749 89.2476 174.749 92.1475Z" fill="#CA6035"/>
<path d="M224.404 93.1034V99.3103H234.906V93.1034V86.8965H224.404V93.1034Z" fill="#CA6035"/>
<path d="M130.345 100.266C133.245 100.266 135.596 102.617 135.596 105.517C135.596 108.418 133.245 110.768 130.345 110.768C127.445 110.768 125.094 108.418 125.094 105.517C125.094 102.617 127.445 100.266 130.345 100.266Z" fill="#CA6035"/>
<path d="M160.423 106.473C160.423 105.408 160.423 103.415 160.423 102.214C160.423 101.622 160.423 101.222 160.423 101.222V100.788V100.055V99.3103H149.921V100.055V100.788V101.222C149.921 101.222 149.921 101.625 149.921 102.214C149.921 103.488 149.921 105.636 149.921 106.473C149.921 109.373 152.273 111.724 155.172 111.724C158.073 111.724 160.423 109.373 160.423 106.473Z" fill="#CA6035"/>
<path d="M174.749 105.517V111.724H185.251V105.517V99.3103H174.749V105.517Z" fill="#CA6035"/>
<path d="M204.828 100.266C207.728 100.266 210.079 102.617 210.079 105.517C210.079 108.418 207.728 110.768 204.828 110.768C201.928 110.768 199.577 108.418 199.577 105.517C199.577 102.617 201.928 100.266 204.828 100.266Z" fill="#CA6035"/>
<path d="M224.404 105.517V111.724H234.906V105.517V99.3103H224.404V105.517Z" fill="#CA6035"/>
<path d="M142.759 112.68C145.659 112.68 148.01 115.031 148.01 117.931C148.01 120.831 145.659 123.182 142.759 123.182C139.859 123.182 137.508 120.831 137.508 117.931C137.508 115.031 139.859 112.68 142.759 112.68Z" fill="#CA6035"/>
<path d="M185.251 118.887C185.251 117.822 185.251 115.828 185.251 114.628C185.251 114.035 185.251 113.636 185.251 113.636V113.201V112.469V111.724H174.749V112.469V113.201V113.636C174.749 113.636 174.749 114.038 174.749 114.628C174.749 115.902 174.749 118.05 174.749 118.887C174.749 121.787 177.1 124.138 180 124.138C182.9 124.138 185.251 121.787 185.251 118.887Z" fill="#CA6035"/>
<path d="M192.414 112.68C195.314 112.68 197.665 115.031 197.665 117.931C197.665 120.831 195.314 123.182 192.414 123.182C189.514 123.182 187.163 120.831 187.163 117.931C187.163 115.031 189.514 112.68 192.414 112.68Z" fill="#CA6035"/>
<path d="M224.404 117.931V124.138H234.906V117.931V111.724H224.404V117.931Z" fill="#CA6035"/>
<path d="M31.0345 125.094C33.9347 125.094 36.2855 127.445 36.2855 130.345C36.2855 133.245 33.9347 135.596 31.0345 135.596C28.1344 135.596 25.7834 133.245 25.7834 130.345C25.7834 127.445 28.1344 125.094 31.0345 125.094Z" fill="#CA6035"/>
<path d="M63.0248 129.389C63.0248 130.454 63.0248 132.447 63.0248 133.648C63.0248 134.24 63.0248 134.64 63.0248 134.64V135.074V135.807V136.552H73.5269V135.807V135.074V134.64C73.5269 134.64 73.5269 134.237 73.5269 133.648C73.5269 132.374 73.5269 130.226 73.5269 129.389C73.5269 126.489 71.1757 124.138 68.2759 124.138C65.3758 124.138 63.0248 126.489 63.0248 129.389Z" fill="#CA6035"/>
<path d="M75.4386 129.389C75.4386 130.454 75.4386 132.447 75.4386 133.648C75.4386 134.24 75.4386 134.64 75.4386 134.64V135.074V135.807V136.552H85.9407V135.807V135.074V134.64C85.9407 134.64 85.9407 134.237 85.9407 133.648C85.9407 132.374 85.9407 130.226 85.9407 129.389C85.9407 126.489 83.5895 124.138 80.6897 124.138C77.7896 124.138 75.4386 126.489 75.4386 129.389Z" fill="#CA6035"/>
<path d="M93.1035 125.094C96.0036 125.094 98.3545 127.445 98.3545 130.345C98.3545 133.245 96.0036 135.596 93.1035 135.596C90.2034 135.596 87.8524 133.245 87.8524 130.345C87.8524 127.445 90.2034 125.094 93.1035 125.094Z" fill="#CA6035"/>
<path d="M105.517 125.094C108.417 125.094 110.768 127.445 110.768 130.345C110.768 133.245 108.417 135.596 105.517 135.596C102.617 135.596 100.266 133.245 100.266 130.345C100.266 127.445 102.617 125.094 105.517 125.094Z" fill="#CA6035"/>
<path d="M117.931 125.094C120.831 125.094 123.182 127.445 123.182 130.345C123.182 133.245 120.831 135.596 117.931 135.596C115.031 135.596 112.68 133.245 112.68 130.345C112.68 127.445 115.031 125.094 117.931 125.094Z" fill="#CA6035"/>
<path d="M130.345 125.094C133.245 125.094 135.596 127.445 135.596 130.345C135.596 133.245 133.245 135.596 130.345 135.596C127.445 135.596 125.094 133.245 125.094 130.345C125.094 127.445 127.445 125.094 130.345 125.094Z" fill="#CA6035"/>
<path d="M167.586 125.094C170.486 125.094 172.837 127.445 172.837 130.345C172.837 133.245 170.486 135.596 167.586 135.596C164.686 135.596 162.335 133.245 162.335 130.345C162.335 127.445 164.686 125.094 167.586 125.094Z" fill="#CA6035"/>
<path d="M204.828 125.094C207.728 125.094 210.079 127.445 210.079 130.345C210.079 133.245 207.728 135.596 204.828 135.596C201.928 135.596 199.577 133.245 199.577 130.345C199.577 127.445 201.928 125.094 204.828 125.094Z" fill="#CA6035"/>
<path d="M234.906 131.301C234.906 130.235 234.906 128.242 234.906 127.042C234.906 126.449 234.906 126.05 234.906 126.05V125.615V124.883V124.138H224.404V124.883V125.615V126.05C224.404 126.05 224.404 126.452 224.404 127.042C224.404 128.316 224.404 130.464 224.404 131.301C224.404 134.201 226.755 136.552 229.655 136.552C232.555 136.552 234.906 134.201 234.906 131.301Z" fill="#CA6035"/>
<path d="M242.069 125.094C244.969 125.094 247.32 127.445 247.32 130.345C247.32 133.245 244.969 135.596 242.069 135.596C239.169 135.596 236.818 133.245 236.818 130.345C236.818 127.445 239.169 125.094 242.069 125.094Z" fill="#CA6035"/>
<path d="M274.059 129.389C274.059 130.454 274.059 132.447 274.059 133.648C274.059 134.24 274.059 134.64 274.059 134.64V135.074V135.807V136.552H284.561V135.807V135.074V134.64C284.561 134.64 284.561 134.237 284.561 133.648C284.561 132.374 284.561 130.226 284.561 129.389C284.561 126.489 282.21 124.138 279.31 124.138C276.41 124.138 274.059 126.489 274.059 129.389Z" fill="#CA6035"/>
<path d="M298.887 129.389C298.887 130.454 298.887 132.447 298.887 133.648C298.887 134.24 298.887 134.64 298.887 134.64V135.074V135.807V136.552H309.389V135.807V135.074V134.64C309.389 134.64 309.389 134.237 309.389 133.648C309.389 132.374 309.389 130.226 309.389 129.389C309.389 126.489 307.038 124.138 304.138 124.138C301.238 124.138 298.887 126.489 298.887 129.389Z" fill="#CA6035"/>
<path d="M311.301 129.389C311.301 130.454 311.301 132.447 311.301 133.648C311.301 134.24 311.301 134.64 311.301 134.64V135.074V135.807V136.552H321.803V135.807V135.074V134.64C321.803 134.64 321.803 134.237 321.803 133.648C321.803 132.374 321.803 130.226 321.803 129.389C321.803 126.489 319.452 124.138 316.552 124.138C313.652 124.138 311.301 126.489 311.301 129.389Z" fill="#CA6035"/>
<path d="M328.966 125.094C331.866 125.094 334.217 127.445 334.217 130.345C334.217 133.245 331.866 135.596 328.966 135.596C326.065 135.596 323.714 133.245 323.714 130.345C323.714 127.445 326.065 125.094 328.966 125.094Z" fill="#CA6035"/>
<path d="M50.611 141.803C50.611 142.868 50.611 144.861 50.611 146.062C50.611 146.654 50.611 147.054 50.611 147.054V147.488V148.221V148.966H61.1131V148.221V147.488V147.054C61.1131 147.054 61.1131 146.651 61.1131 146.062C61.1131 144.788 61.1131 142.64 61.1131 141.803C61.1131 138.903 58.7619 136.552 55.8621 136.552C52.962 136.552 50.611 138.903 50.611 141.803Z" fill="#CA6035"/>
<path d="M63.0248 142.759V148.966H73.5269V142.759V136.552H63.0248V142.759Z" fill="#CA6035"/>
<path d="M75.4386 142.759V148.966H85.9407V142.759V136.552H75.4386V142.759Z" fill="#CA6035"/>
<path d="M155.172 137.508C158.073 137.508 160.423 139.859 160.423 142.759C160.423 145.659 158.073 148.01 155.172 148.01C152.272 148.01 149.921 145.659 149.921 142.759C149.921 139.859 152.272 137.508 155.172 137.508Z" fill="#CA6035"/>
<path d="M174.749 141.803C174.749 142.868 174.749 144.861 174.749 146.062C174.749 146.654 174.749 147.054 174.749 147.054V147.488V148.221V148.966H185.251V148.221V147.488V147.054C185.251 147.054 185.251 146.651 185.251 146.062C185.251 144.788 185.251 142.64 185.251 141.803C185.251 138.903 182.9 136.552 180 136.552C177.1 136.552 174.749 138.903 174.749 141.803Z" fill="#CA6035"/>
<path d="M187.163 141.803C187.163 142.868 187.163 144.861 187.163 146.062C187.163 146.654 187.163 147.054 187.163 147.054V147.488V148.221V148.966H197.665V148.221V147.488V147.054C197.665 147.054 197.665 146.651 197.665 146.062C197.665 144.788 197.665 142.64 197.665 141.803C197.665 138.903 195.314 136.552 192.414 136.552C189.514 136.552 187.163 138.903 187.163 141.803Z" fill="#CA6035"/>
<path d="M211.99 141.803C211.99 142.868 211.99 144.861 211.99 146.062C211.99 146.654 211.99 147.054 211.99 147.054V147.488V148.221V148.966H222.492V148.221V147.488V147.054C222.492 147.054 222.492 146.651 222.492 146.062C222.492 144.788 222.492 142.64 222.492 141.803C222.492 138.903 220.141 136.552 217.241 136.552C214.341 136.552 211.99 138.903 211.99 141.803Z" fill="#CA6035"/>
<path d="M266.897 137.508C269.797 137.508 272.148 139.859 272.148 142.759C272.148 145.659 269.797 148.01 266.897 148.01C263.997 148.01 261.646 145.659 261.646 142.759C261.646 139.859 263.997 137.508 266.897 137.508Z" fill="#CA6035"/>
<path d="M284.561 143.715C284.561 142.649 284.561 140.656 284.561 139.455C284.561 138.863 284.561 138.463 284.561 138.463V138.029V137.297V136.552H274.059V137.297V138.029V138.463C274.059 138.463 274.059 138.866 274.059 139.455C274.059 140.73 274.059 142.878 274.059 143.715C274.059 146.614 276.41 148.966 279.31 148.966C282.21 148.966 284.561 146.614 284.561 143.715Z" fill="#CA6035"/>
<path d="M286.473 141.803C286.473 142.868 286.473 144.861 286.473 146.062C286.473 146.654 286.473 147.054 286.473 147.054V147.488V148.221V148.966H296.975V148.221V147.488V147.054C296.975 147.054 296.975 146.651 296.975 146.062C296.975 144.788 296.975 142.64 296.975 141.803C296.975 138.903 294.624 136.552 291.724 136.552C288.824 136.552 286.473 138.903 286.473 141.803Z" fill="#CA6035"/>
<path d="M309.389 143.715C309.389 142.649 309.389 140.656 309.389 139.455C309.389 138.863 309.389 138.463 309.389 138.463V138.029V137.297V136.552H298.887V137.297V138.029V138.463C298.887 138.463 298.887 138.866 298.887 139.455C298.887 140.73 298.887 142.878 298.887 143.715C298.887 146.614 301.238 148.966 304.138 148.966C307.038 148.966 309.389 146.614 309.389 143.715Z" fill="#CA6035"/>
<path d="M321.803 143.715C321.803 142.649 321.803 140.656 321.803 139.455C321.803 138.863 321.803 138.463 321.803 138.463V138.029V137.297V136.552H311.301V137.297V138.029V138.463C311.301 138.463 311.301 138.866 311.301 139.455C311.301 140.73 311.301 142.878 311.301 143.715C311.301 146.614 313.652 148.966 316.552 148.966C319.452 148.966 321.803 146.614 321.803 143.715Z" fill="#CA6035"/>
<path d="M61.1131 156.128C61.1131 155.063 61.1131 153.07 61.1131 151.869C61.1131 151.277 61.1131 150.877 61.1131 150.877V150.443V149.71V148.966H50.611V149.71V150.443V150.877C50.611 150.877 50.611 151.28 50.611 151.869C50.611 153.144 50.611 155.291 50.611 156.128C50.611 159.028 52.9622 161.379 55.8621 161.379C58.7622 161.379 61.1131 159.028 61.1131 156.128Z" fill="#CA6035"/>
<path d="M63.0248 155.172V161.379H73.5269V155.172V148.966H63.0248V155.172Z" fill="#CA6035"/>
<path d="M85.9407 156.128C85.9407 155.063 85.9407 153.07 85.9407 151.869C85.9407 151.277 85.9407 150.877 85.9407 150.877V150.443V149.71V148.966H75.4386V149.71V150.443V150.877C75.4386 150.877 75.4386 151.28 75.4386 151.869C75.4386 153.144 75.4386 155.291 75.4386 156.128C75.4386 159.028 77.7898 161.379 80.6897 161.379C83.5897 161.379 85.9407 159.028 85.9407 156.128Z" fill="#CA6035"/>
<path d="M87.8524 154.217C87.8524 155.282 87.8524 157.275 87.8524 158.476C87.8524 159.068 87.8524 159.468 87.8524 159.468V159.902V160.635V161.379H98.3545V160.635V159.902V159.468C98.3545 159.468 98.3545 159.065 98.3545 158.476C98.3545 157.201 98.3545 155.054 98.3545 154.217C98.3545 151.317 96.0033 148.966 93.1035 148.966C90.2034 148.966 87.8524 151.317 87.8524 154.217Z" fill="#CA6035"/>
<path d="M105.517 149.921C108.417 149.921 110.768 152.272 110.768 155.172C110.768 158.073 108.417 160.423 105.517 160.423C102.617 160.423 100.266 158.073 100.266 155.172C100.266 152.272 102.617 149.921 105.517 149.921Z" fill="#CA6035"/>
<path d="M112.68 154.217C112.68 155.282 112.68 157.275 112.68 158.476C112.68 159.068 112.68 159.468 112.68 159.468V159.902V160.635V161.379H123.182V160.635V159.902V159.468C123.182 159.468 123.182 159.065 123.182 158.476C123.182 157.201 123.182 155.054 123.182 154.217C123.182 151.317 120.831 148.966 117.931 148.966C115.031 148.966 112.68 151.317 112.68 154.217Z" fill="#CA6035"/>
<path d="M174.749 155.172V161.379H185.251V155.172V148.966H174.749V155.172Z" fill="#CA6035"/>
<path d="M197.665 156.128C197.665 155.063 197.665 153.07 197.665 151.869C197.665 151.277 197.665 150.877 197.665 150.877V150.443V149.71V148.966H187.163V149.71V150.443V150.877C187.163 150.877 187.163 151.28 187.163 151.869C187.163 153.144 187.163 155.291 187.163 156.128C187.163 159.028 189.514 161.379 192.414 161.379C195.314 161.379 197.665 159.028 197.665 156.128Z" fill="#CA6035"/>
<path d="M204.828 149.921C207.728 149.921 210.079 152.272 210.079 155.172C210.079 158.073 207.728 160.423 204.828 160.423C201.928 160.423 199.577 158.073 199.577 155.172C199.577 152.272 201.928 149.921 204.828 149.921Z" fill="#CA6035"/>
<path d="M211.99 155.172V161.379H222.492V155.172V148.966H211.99V155.172Z" fill="#CA6035"/>
<path d="M229.655 149.921C232.555 149.921 234.906 152.272 234.906 155.172C234.906 158.073 232.555 160.423 229.655 160.423C226.755 160.423 224.404 158.073 224.404 155.172C224.404 152.272 226.755 149.921 229.655 149.921Z" fill="#CA6035"/>
<path d="M242.069 149.921C244.969 149.921 247.32 152.272 247.32 155.172C247.32 158.073 244.969 160.423 242.069 160.423C239.169 160.423 236.818 158.073 236.818 155.172C236.818 152.272 239.169 149.921 242.069 149.921Z" fill="#CA6035"/>
<path d="M286.473 155.172V161.379H296.975V155.172V148.966H286.473V155.172Z" fill="#CA6035"/>
<path d="M323.714 154.217C323.714 155.282 323.714 157.275 323.714 158.476C323.714 159.068 323.714 159.468 323.714 159.468V159.902V160.635V161.379H334.217V160.635V159.902V159.468C334.217 159.468 334.217 159.065 334.217 158.476C334.217 157.201 334.217 155.054 334.217 154.217C334.217 151.317 331.865 148.966 328.966 148.966C326.065 148.966 323.714 151.317 323.714 154.217Z" fill="#CA6035"/>
<path d="M73.5269 168.542C73.5269 167.477 73.5269 165.484 73.5269 164.283C73.5269 163.691 73.5269 163.291 73.5269 163.291V162.857V162.124V161.379H63.0248V162.124V162.857V163.291C63.0248 163.291 63.0248 163.694 63.0248 164.283C63.0248 165.557 63.0248 167.705 63.0248 168.542C63.0248 171.442 65.376 173.793 68.2759 173.793C71.176 173.793 73.5269 171.442 73.5269 168.542Z" fill="#CA6035"/>
<path d="M87.8524 167.586V173.793H98.3545V167.586V161.379H87.8524V167.586Z" fill="#CA6035"/>
<path d="M123.182 168.542C123.182 167.477 123.182 165.484 123.182 164.283C123.182 163.691 123.182 163.291 123.182 163.291V162.857V162.124V161.379H112.68V162.124V162.857V163.291C112.68 163.291 112.68 163.694 112.68 164.283C112.68 165.557 112.68 167.705 112.68 168.542C112.68 171.442 115.031 173.793 117.931 173.793C120.831 173.793 123.182 171.442 123.182 168.542Z" fill="#CA6035"/>
<path d="M137.508 166.63C137.508 167.696 137.508 169.689 137.508 170.89C137.508 171.482 137.508 171.881 137.508 171.881V172.316V173.048V173.793H148.01V173.048V172.316V171.881C148.01 171.881 148.01 171.479 148.01 170.89C148.01 169.615 148.01 167.467 148.01 166.63C148.01 163.731 145.658 161.379 142.759 161.379C139.859 161.379 137.508 163.731 137.508 166.63Z" fill="#CA6035"/>
<path d="M162.335 166.63C162.335 167.696 162.335 169.689 162.335 170.89C162.335 171.482 162.335 171.881 162.335 171.881V172.316V173.048V173.793H172.837V173.048V172.316V171.881C172.837 171.881 172.837 171.479 172.837 170.89C172.837 169.615 172.837 167.467 172.837 166.63C172.837 163.731 170.486 161.379 167.586 161.379C164.686 161.379 162.335 163.731 162.335 166.63Z" fill="#CA6035"/>
<path d="M174.749 167.586V173.793H185.251V167.586V161.379H174.749V167.586Z" fill="#CA6035"/>
<path d="M222.492 168.542C222.492 167.477 222.492 165.484 222.492 164.283C222.492 163.691 222.492 163.291 222.492 163.291V162.857V162.124V161.379H211.99V162.124V162.857V163.291C211.99 163.291 211.99 163.694 211.99 164.283C211.99 165.557 211.99 167.705 211.99 168.542C211.99 171.442 214.342 173.793 217.241 173.793C220.141 173.793 222.492 171.442 222.492 168.542Z" fill="#CA6035"/>
<path d="M266.897 162.335C269.797 162.335 272.148 164.686 272.148 167.586C272.148 170.486 269.797 172.837 266.897 172.837C263.997 172.837 261.646 170.486 261.646 167.586C261.646 164.686 263.997 162.335 266.897 162.335Z" fill="#CA6035"/>
<path d="M296.975 168.542C296.975 167.477 296.975 165.484 296.975 164.283C296.975 163.691 296.975 163.291 296.975 163.291V162.857V162.124V161.379H286.473V162.124V162.857V163.291C286.473 163.291 286.473 163.694 286.473 164.283C286.473 165.557 286.473 167.705 286.473 168.542C286.473 171.442 288.824 173.793 291.724 173.793C294.624 173.793 296.975 171.442 296.975 168.542Z" fill="#CA6035"/>
<path d="M304.138 162.335C307.038 162.335 309.389 164.686 309.389 167.586C309.389 170.486 307.038 172.837 304.138 172.837C301.238 172.837 298.887 170.486 298.887 167.586C298.887 164.686 301.238 162.335 304.138 162.335Z" fill="#CA6035"/>
<path d="M316.552 162.335C319.452 162.335 321.803 164.686 321.803 167.586C321.803 170.486 319.452 172.837 316.552 172.837C313.652 172.837 311.301 170.486 311.301 167.586C311.301 164.686 313.652 162.335 316.552 162.335Z" fill="#CA6035"/>
<path d="M323.714 167.586V173.793H334.217V167.586V161.379H323.714V167.586Z" fill="#CA6035"/>
<path d="M38.1973 179.044C38.1973 180.11 38.1973 182.103 38.1973 183.303C38.1973 183.896 38.1973 184.295 38.1973 184.295V184.73V185.462V186.207H48.6993V185.462V184.73V184.295C48.6993 184.295 48.6993 183.893 48.6993 183.303C48.6993 182.029 48.6993 179.881 48.6993 179.044C48.6993 176.144 46.3481 173.793 43.4483 173.793C40.5482 173.793 38.1973 176.144 38.1973 179.044Z" fill="#CA6035"/>
<path d="M87.8524 180V186.207H98.3545V180V173.793H87.8524V180Z" fill="#CA6035"/>
<path d="M105.517 174.749C108.417 174.749 110.768 177.1 110.768 180C110.768 182.9 108.417 185.251 105.517 185.251C102.617 185.251 100.266 182.9 100.266 180C100.266 177.1 102.617 174.749 105.517 174.749Z" fill="#CA6035"/>
<path d="M125.094 179.044C125.094 180.11 125.094 182.103 125.094 183.303C125.094 183.896 125.094 184.295 125.094 184.295V184.73V185.462V186.207H135.596V185.462V184.73V184.295C135.596 184.295 135.596 183.893 135.596 183.303C135.596 182.029 135.596 179.881 135.596 179.044C135.596 176.144 133.245 173.793 130.345 173.793C127.445 173.793 125.094 176.144 125.094 179.044Z" fill="#CA6035"/>
<path d="M137.508 180V186.207H148.01V180V173.793H137.508V180Z" fill="#CA6035"/>
<path d="M172.837 180.956C172.837 179.891 172.837 177.898 172.837 176.697C172.837 176.104 172.837 175.705 172.837 175.705V175.27V174.538V173.793H162.335V174.538V175.27V175.705C162.335 175.705 162.335 176.108 162.335 176.697C162.335 177.971 162.335 180.119 162.335 180.956C162.335 183.856 164.686 186.207 167.586 186.207C170.486 186.207 172.837 183.856 172.837 180.956Z" fill="#CA6035"/>
<path d="M185.251 180.956C185.251 179.891 185.251 177.898 185.251 176.697C185.251 176.104 185.251 175.705 185.251 175.705V175.27V174.538V173.793H174.749V174.538V175.27V175.705C174.749 175.705 174.749 176.108 174.749 176.697C174.749 177.971 174.749 180.119 174.749 180.956C174.749 183.856 177.1 186.207 180 186.207C182.9 186.207 185.251 183.856 185.251 180.956Z" fill="#CA6035"/>
<path d="M229.655 174.749C232.555 174.749 234.906 177.1 234.906 180C234.906 182.9 232.555 185.251 229.655 185.251C226.755 185.251 224.404 182.9 224.404 180C224.404 177.1 226.755 174.749 229.655 174.749Z" fill="#CA6035"/>
<path d="M242.069 174.749C244.969 174.749 247.32 177.1 247.32 180C247.32 182.9 244.969 185.251 242.069 185.251C239.169 185.251 236.818 182.9 236.818 180C236.818 177.1 239.169 174.749 242.069 174.749Z" fill="#CA6035"/>
<path d="M254.483 174.749C257.383 174.749 259.734 177.1 259.734 180C259.734 182.9 257.383 185.251 254.483 185.251C251.583 185.251 249.232 182.9 249.232 180C249.232 177.1 251.583 174.749 254.483 174.749Z" fill="#CA6035"/>
<path d="M334.217 180.956C334.217 179.891 334.217 177.898 334.217 176.697C334.217 176.104 334.217 175.705 334.217 175.705V175.27V174.538V173.793H323.714V174.538V175.27V175.705C323.714 175.705 323.714 176.108 323.714 176.697C323.714 177.971 323.714 180.119 323.714 180.956C323.714 183.856 326.066 186.207 328.966 186.207C331.866 186.207 334.217 183.856 334.217 180.956Z" fill="#CA6035"/>
<path d="M25.7834 191.458C25.7834 192.523 25.7834 194.517 25.7834 195.717C25.7834 196.31 25.7834 196.709 25.7834 196.709V197.144V197.876V198.621H36.2855V197.876V197.144V196.709C36.2855 196.709 36.2855 196.306 36.2855 195.717C36.2855 194.443 36.2855 192.295 36.2855 191.458C36.2855 188.558 33.9343 186.207 31.0345 186.207C28.1344 186.207 25.7834 188.558 25.7834 191.458Z" fill="#CA6035"/>
<path d="M38.1973 192.414V198.621H48.6993V192.414V186.207H38.1973V192.414Z" fill="#CA6035"/>
<path d="M50.611 191.458C50.611 192.523 50.611 194.517 50.611 195.717C50.611 196.31 50.611 196.709 50.611 196.709V197.144V197.876V198.621H61.1131V197.876V197.144V196.709C61.1131 196.709 61.1131 196.306 61.1131 195.717C61.1131 194.443 61.1131 192.295 61.1131 191.458C61.1131 188.558 58.7619 186.207 55.8621 186.207C52.962 186.207 50.611 188.558 50.611 191.458Z" fill="#CA6035"/>
<path d="M75.4386 191.458C75.4386 192.523 75.4386 194.517 75.4386 195.717C75.4386 196.31 75.4386 196.709 75.4386 196.709V197.144V197.876V198.621H85.9407V197.876V197.144V196.709C85.9407 196.709 85.9407 196.306 85.9407 195.717C85.9407 194.443 85.9407 192.295 85.9407 191.458C85.9407 188.558 83.5895 186.207 80.6897 186.207C77.7896 186.207 75.4386 188.558 75.4386 191.458Z" fill="#CA6035"/>
<path d="M87.8524 192.414V198.621H98.3545V192.414V186.207H87.8524V192.414Z" fill="#CA6035"/>
<path d="M112.68 191.458C112.68 192.523 112.68 194.517 112.68 195.717C112.68 196.31 112.68 196.709 112.68 196.709V197.144V197.876V198.621H123.182V197.876V197.144V196.709C123.182 196.709 123.182 196.306 123.182 195.717C123.182 194.443 123.182 192.295 123.182 191.458C123.182 188.558 120.831 186.207 117.931 186.207C115.031 186.207 112.68 188.558 112.68 191.458Z" fill="#CA6035"/>
<path d="M125.094 192.414V198.621H135.596V192.414V186.207H125.094V192.414Z" fill="#CA6035"/>
<path d="M137.508 192.414V198.621H148.01V192.414V186.207H137.508V192.414Z" fill="#CA6035"/>
<path d="M187.163 191.458C187.163 192.523 187.163 194.517 187.163 195.717C187.163 196.31 187.163 196.709 187.163 196.709V197.144V197.876V198.621H197.665V197.876V197.144V196.709C197.665 196.709 197.665 196.306 197.665 195.717C197.665 194.443 197.665 192.295 197.665 191.458C197.665 188.558 195.314 186.207 192.414 186.207C189.514 186.207 187.163 188.558 187.163 191.458Z" fill="#CA6035"/>
<path d="M199.577 191.458C199.577 192.523 199.577 194.517 199.577 195.717C199.577 196.31 199.577 196.709 199.577 196.709V197.144V197.876V198.621H210.079V197.876V197.144V196.709C210.079 196.709 210.079 196.306 210.079 195.717C210.079 194.443 210.079 192.295 210.079 191.458C210.079 188.558 207.727 186.207 204.828 186.207C201.928 186.207 199.577 188.558 199.577 191.458Z" fill="#CA6035"/>
<path d="M211.99 191.458C211.99 192.523 211.99 194.517 211.99 195.717C211.99 196.31 211.99 196.709 211.99 196.709V197.144V197.876V198.621H222.492V197.876V197.144V196.709C222.492 196.709 222.492 196.306 222.492 195.717C222.492 194.443 222.492 192.295 222.492 191.458C222.492 188.558 220.141 186.207 217.241 186.207C214.341 186.207 211.99 188.558 211.99 191.458Z" fill="#CA6035"/>
<path d="M274.059 191.458C274.059 192.523 274.059 194.517 274.059 195.717C274.059 196.31 274.059 196.709 274.059 196.709V197.144V197.876V198.621H284.561V197.876V197.144V196.709C284.561 196.709 284.561 196.306 284.561 195.717C284.561 194.443 284.561 192.295 284.561 191.458C284.561 188.558 282.21 186.207 279.31 186.207C276.41 186.207 274.059 188.558 274.059 191.458Z" fill="#CA6035"/>
<path d="M311.301 191.458C311.301 192.523 311.301 194.517 311.301 195.717C311.301 196.31 311.301 196.709 311.301 196.709V197.144V197.876V198.621H321.803V197.876V197.144V196.709C321.803 196.709 321.803 196.306 321.803 195.717C321.803 194.443 321.803 192.295 321.803 191.458C321.803 188.558 319.452 186.207 316.552 186.207C313.652 186.207 311.301 188.558 311.301 191.458Z" fill="#CA6035"/>
<path d="M25.7834 204.828V211.035H36.2855V204.828V198.621H25.7834V204.828Z" fill="#CA6035"/>
<path d="M48.6993 205.784C48.6993 204.718 48.6993 202.725 48.6993 201.524C48.6993 200.932 48.6993 200.533 48.6993 200.533V200.098V199.366V198.621H38.1973V199.366V200.098V200.533C38.1973 200.533 38.1973 200.935 38.1973 201.524C38.1973 202.799 38.1973 204.947 38.1973 205.784C38.1973 208.683 40.5484 211.035 43.4483 211.035C46.3484 211.035 48.6993 208.683 48.6993 205.784Z" fill="#CA6035"/>
<path d="M50.611 204.828V211.035H61.1131V204.828V198.621H50.611V204.828Z" fill="#CA6035"/>
<path d="M85.9407 205.784C85.9407 204.718 85.9407 202.725 85.9407 201.524C85.9407 200.932 85.9407 200.533 85.9407 200.533V200.098V199.366V198.621H75.4386V199.366V200.098V200.533C75.4386 200.533 75.4386 200.935 75.4386 201.524C75.4386 202.799 75.4386 204.947 75.4386 205.784C75.4386 208.683 77.7898 211.035 80.6897 211.035C83.5897 211.035 85.9407 208.683 85.9407 205.784Z" fill="#CA6035"/>
<path d="M87.8524 204.828V211.035H98.3545V204.828V198.621H87.8524V204.828Z" fill="#CA6035"/>
<path d="M105.517 199.577C108.417 199.577 110.768 201.928 110.768 204.828C110.768 207.728 108.417 210.079 105.517 210.079C102.617 210.079 100.266 207.728 100.266 204.828C100.266 201.928 102.617 199.577 105.517 199.577Z" fill="#CA6035"/>
<path d="M123.182 205.784C123.182 204.718 123.182 202.725 123.182 201.524C123.182 200.932 123.182 200.533 123.182 200.533V200.098V199.366V198.621H112.68V199.366V200.098V200.533C112.68 200.533 112.68 200.935 112.68 201.524C112.68 202.799 112.68 204.947 112.68 205.784C112.68 208.683 115.031 211.035 117.931 211.035C120.831 211.035 123.182 208.683 123.182 205.784Z" fill="#CA6035"/>
<path d="M135.596 205.784C135.596 204.718 135.596 202.725 135.596 201.524C135.596 200.932 135.596 200.533 135.596 200.533V200.098V199.366V198.621H125.094V199.366V200.098V200.533C125.094 200.533 125.094 200.935 125.094 201.524C125.094 202.799 125.094 204.947 125.094 205.784C125.094 208.683 127.445 211.035 130.345 211.035C133.245 211.035 135.596 208.683 135.596 205.784Z" fill="#CA6035"/>
<path d="M148.01 205.784C148.01 204.718 148.01 202.725 148.01 201.524C148.01 200.932 148.01 200.533 148.01 200.533V200.098V199.366V198.621H137.508V199.366V200.098V200.533C137.508 200.533 137.508 200.935 137.508 201.524C137.508 202.799 137.508 204.947 137.508 205.784C137.508 208.683 139.859 211.035 142.759 211.035C145.659 211.035 148.01 208.683 148.01 205.784Z" fill="#CA6035"/>
<path d="M162.335 203.872C162.335 204.937 162.335 206.93 162.335 208.131C162.335 208.723 162.335 209.123 162.335 209.123V209.557V210.29V211.035H172.837V210.29V209.557V209.123C172.837 209.123 172.837 208.72 172.837 208.131C172.837 206.857 172.837 204.709 172.837 203.872C172.837 200.972 170.486 198.621 167.586 198.621C164.686 198.621 162.335 200.972 162.335 203.872Z" fill="#CA6035"/>
<path d="M180 199.577C182.9 199.577 185.251 201.928 185.251 204.828C185.251 207.728 182.9 210.079 180 210.079C177.1 210.079 174.749 207.728 174.749 204.828C174.749 201.928 177.1 199.577 180 199.577Z" fill="#CA6035"/>
<path d="M197.665 205.784C197.665 204.718 197.665 202.725 197.665 201.524C197.665 200.932 197.665 200.533 197.665 200.533V200.098V199.366V198.621H187.163V199.366V200.098V200.533C187.163 200.533 187.163 200.935 187.163 201.524C187.163 202.799 187.163 204.947 187.163 205.784C187.163 208.683 189.514 211.035 192.414 211.035C195.314 211.035 197.665 208.683 197.665 205.784Z" fill="#CA6035"/>
<path d="M199.577 204.828V211.035H210.079V204.828V198.621H199.577V204.828Z" fill="#CA6035"/>
<path d="M222.492 205.784C222.492 204.718 222.492 202.725 222.492 201.524C222.492 200.932 222.492 200.533 222.492 200.533V200.098V199.366V198.621H211.99V199.366V200.098V200.533C211.99 200.533 211.99 200.935 211.99 201.524C211.99 202.799 211.99 204.947 211.99 205.784C211.99 208.683 214.342 211.035 217.241 211.035C220.141 211.035 222.492 208.683 222.492 205.784Z" fill="#CA6035"/>
<path d="M242.069 199.577C244.969 199.577 247.32 201.928 247.32 204.828C247.32 207.728 244.969 210.079 242.069 210.079C239.169 210.079 236.818 207.728 236.818 204.828C236.818 201.928 239.169 199.577 242.069 199.577Z" fill="#CA6035"/>
<path d="M284.561 205.784C284.561 204.718 284.561 202.725 284.561 201.524C284.561 200.932 284.561 200.533 284.561 200.533V200.098V199.366V198.621H274.059V199.366V200.098V200.533C274.059 200.533 274.059 200.935 274.059 201.524C274.059 202.799 274.059 204.947 274.059 205.784C274.059 208.683 276.41 211.035 279.31 211.035C282.21 211.035 284.561 208.683 284.561 205.784Z" fill="#CA6035"/>
<path d="M286.473 203.872C286.473 204.937 286.473 206.93 286.473 208.131C286.473 208.723 286.473 209.123 286.473 209.123V209.557V210.29V211.035H296.975V210.29V209.557V209.123C296.975 209.123 296.975 208.72 296.975 208.131C296.975 206.857 296.975 204.709 296.975 203.872C296.975 200.972 294.624 198.621 291.724 198.621C288.824 198.621 286.473 200.972 286.473 203.872Z" fill="#CA6035"/>
<path d="M298.887 203.872C298.887 204.937 298.887 206.93 298.887 208.131C298.887 208.723 298.887 209.123 298.887 209.123V209.557V210.29V211.035H309.389V210.29V209.557V209.123C309.389 209.123 309.389 208.72 309.389 208.131C309.389 206.857 309.389 204.709 309.389 203.872C309.389 200.972 307.038 198.621 304.138 198.621C301.238 198.621 298.887 200.972 298.887 203.872Z" fill="#CA6035"/>
<path d="M321.803 205.784C321.803 204.718 321.803 202.725 321.803 201.524C321.803 200.932 321.803 200.533 321.803 200.533V200.098V199.366V198.621H311.301V199.366V200.098V200.533C311.301 200.533 311.301 200.935 311.301 201.524C311.301 202.799 311.301 204.947 311.301 205.784C311.301 208.683 313.652 211.035 316.552 211.035C319.452 211.035 321.803 208.683 321.803 205.784Z" fill="#CA6035"/>
<path d="M323.714 203.872C323.714 204.937 323.714 206.93 323.714 208.131C323.714 208.723 323.714 209.123 323.714 209.123V209.557V210.29V211.035H334.217V210.29V209.557V209.123C334.217 209.123 334.217 208.72 334.217 208.131C334.217 206.857 334.217 204.709 334.217 203.872C334.217 200.972 331.865 198.621 328.966 198.621C326.065 198.621 323.714 200.972 323.714 203.872Z" fill="#CA6035"/>
<path d="M25.7834 217.241V223.448H36.2855V217.241V211.034H25.7834V217.241Z" fill="#CA6035"/>
<path d="M50.611 217.241V223.448H61.1131V217.241V211.034H50.611V217.241Z" fill="#CA6035"/>
<path d="M87.8524 217.241V223.448H98.3545V217.241V211.034H87.8524V217.241Z" fill="#CA6035"/>
<path d="M155.172 211.99C158.073 211.99 160.423 214.341 160.423 217.242C160.423 220.142 158.073 222.493 155.172 222.493C152.272 222.493 149.921 220.142 149.921 217.242C149.921 214.341 152.272 211.99 155.172 211.99Z" fill="#CA6035"/>
<path d="M172.837 218.197C172.837 217.132 172.837 215.139 172.837 213.938C172.837 213.346 172.837 212.946 172.837 212.946V212.512V211.779V211.034H162.335V211.779V212.512V212.946C162.335 212.946 162.335 213.349 162.335 213.938C162.335 215.212 162.335 217.36 162.335 218.197C162.335 221.097 164.686 223.448 167.586 223.448C170.486 223.448 172.837 221.097 172.837 218.197Z" fill="#CA6035"/>
<path d="M210.079 218.197C210.079 217.132 210.079 215.139 210.079 213.938C210.079 213.346 210.079 212.946 210.079 212.946V212.512V211.779V211.034H199.577V211.779V212.512V212.946C199.577 212.946 199.577 213.349 199.577 213.938C199.577 215.212 199.577 217.36 199.577 218.197C199.577 221.097 201.928 223.448 204.828 223.448C207.728 223.448 210.079 221.097 210.079 218.197Z" fill="#CA6035"/>
<path d="M261.646 216.285C261.646 217.351 261.646 219.344 261.646 220.545C261.646 221.137 261.646 221.536 261.646 221.536V221.971V222.703V223.448H272.148V222.703V221.971V221.536C272.148 221.536 272.148 221.134 272.148 220.545C272.148 219.27 272.148 217.122 272.148 216.285C272.148 213.386 269.796 211.034 266.897 211.034C263.996 211.034 261.646 213.386 261.646 216.285Z" fill="#CA6035"/>
<path d="M296.975 218.197C296.975 217.132 296.975 215.139 296.975 213.938C296.975 213.346 296.975 212.946 296.975 212.946V212.512V211.779V211.034H286.473V211.779V212.512V212.946C286.473 212.946 286.473 213.349 286.473 213.938C286.473 215.212 286.473 217.36 286.473 218.197C286.473 221.097 288.824 223.448 291.724 223.448C294.624 223.448 296.975 221.097 296.975 218.197Z" fill="#CA6035"/>
<path d="M298.887 217.241V223.448H309.389V217.241V211.034H298.887V217.241Z" fill="#CA6035"/>
<path d="M334.217 218.197C334.217 217.132 334.217 215.139 334.217 213.938C334.217 213.346 334.217 212.946 334.217 212.946V212.512V211.779V211.034H323.714V211.779V212.512V212.946C323.714 212.946 323.714 213.349 323.714 213.938C323.714 215.212 323.714 217.36 323.714 218.197C323.714 221.097 326.066 223.448 328.966 223.448C331.866 223.448 334.217 221.097 334.217 218.197Z" fill="#CA6035"/>
<path d="M36.2855 230.611C36.2855 229.546 36.2855 227.553 36.2855 226.352C36.2855 225.76 36.2855 225.36 36.2855 225.36V224.925V224.193V223.448H25.7834V224.193V224.925V225.36C25.7834 225.36 25.7834 225.763 25.7834 226.352C25.7834 227.626 25.7834 229.774 25.7834 230.611C25.7834 233.511 28.1346 235.862 31.0345 235.862C33.9346 235.862 36.2855 233.511 36.2855 230.611Z" fill="#CA6035"/>
<path d="M61.1131 230.611C61.1131 229.546 61.1131 227.553 61.1131 226.352C61.1131 225.76 61.1131 225.36 61.1131 225.36V224.925V224.193V223.448H50.611V224.193V224.925V225.36C50.611 225.36 50.611 225.763 50.611 226.352C50.611 227.626 50.611 229.774 50.611 230.611C50.611 233.511 52.9622 235.862 55.8621 235.862C58.7622 235.862 61.1131 233.511 61.1131 230.611Z" fill="#CA6035"/>
<path d="M80.6897 224.404C83.5898 224.404 85.9407 226.755 85.9407 229.655C85.9407 232.556 83.5898 234.906 80.6897 234.906C77.7896 234.906 75.4386 232.556 75.4386 229.655C75.4386 226.755 77.7896 224.404 80.6897 224.404Z" fill="#CA6035"/>
<path d="M98.3545 230.611C98.3545 229.546 98.3545 227.553 98.3545 226.352C98.3545 225.76 98.3545 225.36 98.3545 225.36V224.925V224.193V223.448H87.8524V224.193V224.925V225.36C87.8524 225.36 87.8524 225.763 87.8524 226.352C87.8524 227.626 87.8524 229.774 87.8524 230.611C87.8524 233.511 90.2036 235.862 93.1035 235.862C96.0035 235.862 98.3545 233.511 98.3545 230.611Z" fill="#CA6035"/>
<path d="M105.517 224.404C108.417 224.404 110.768 226.755 110.768 229.655C110.768 232.556 108.417 234.906 105.517 234.906C102.617 234.906 100.266 232.556 100.266 229.655C100.266 226.755 102.617 224.404 105.517 224.404Z" fill="#CA6035"/>
<path d="M125.094 228.699C125.094 229.765 125.094 231.758 125.094 232.958C125.094 233.551 125.094 233.95 125.094 233.95V234.385V235.117V235.862H135.596V235.117V234.385V233.95C135.596 233.95 135.596 233.548 135.596 232.958C135.596 231.684 135.596 229.536 135.596 228.699C135.596 225.799 133.245 223.448 130.345 223.448C127.445 223.448 125.094 225.799 125.094 228.699Z" fill="#CA6035"/>
<path d="M142.759 224.404C145.659 224.404 148.01 226.755 148.01 229.655C148.01 232.556 145.659 234.906 142.759 234.906C139.859 234.906 137.508 232.556 137.508 229.655C137.508 226.755 139.859 224.404 142.759 224.404Z" fill="#CA6035"/>
<path d="M174.749 228.699C174.749 229.765 174.749 231.758 174.749 232.958C174.749 233.551 174.749 233.95 174.749 233.95V234.385V235.117V235.862H185.251V235.117V234.385V233.95C185.251 233.95 185.251 233.548 185.251 232.958C185.251 231.684 185.251 229.536 185.251 228.699C185.251 225.799 182.9 223.448 180 223.448C177.1 223.448 174.749 225.799 174.749 228.699Z" fill="#CA6035"/>
<path d="M192.414 224.404C195.314 224.404 197.665 226.755 197.665 229.655C197.665 232.556 195.314 234.906 192.414 234.906C189.514 234.906 187.163 232.556 187.163 229.655C187.163 226.755 189.514 224.404 192.414 224.404Z" fill="#CA6035"/>
<path d="M224.404 228.699C224.404 229.765 224.404 231.758 224.404 232.958C224.404 233.551 224.404 233.95 224.404 233.95V234.385V235.117V235.862H234.906V235.117V234.385V233.95C234.906 233.95 234.906 233.548 234.906 232.958C234.906 231.684 234.906 229.536 234.906 228.699C234.906 225.799 232.555 223.448 229.655 223.448C226.755 223.448 224.404 225.799 224.404 228.699Z" fill="#CA6035"/>
<path d="M242.069 224.404C244.969 224.404 247.32 226.755 247.32 229.655C247.32 232.556 244.969 234.906 242.069 234.906C239.169 234.906 236.818 232.556 236.818 229.655C236.818 226.755 239.169 224.404 242.069 224.404Z" fill="#CA6035"/>
<path d="M254.483 224.404C257.383 224.404 259.734 226.755 259.734 229.655C259.734 232.556 257.383 234.906 254.483 234.906C251.583 234.906 249.232 232.556 249.232 229.655C249.232 226.755 251.583 224.404 254.483 224.404Z" fill="#CA6035"/>
<path d="M272.148 230.611C272.148 229.546 272.148 227.553 272.148 226.352C272.148 225.76 272.148 225.36 272.148 225.36V224.925V224.193V223.448H261.646V224.193V224.925V225.36C261.646 225.36 261.646 225.763 261.646 226.352C261.646 227.626 261.646 229.774 261.646 230.611C261.646 233.511 263.997 235.862 266.897 235.862C269.797 235.862 272.148 233.511 272.148 230.611Z" fill="#CA6035"/>
<path d="M274.059 228.699C274.059 229.765 274.059 231.758 274.059 232.958C274.059 233.551 274.059 233.95 274.059 233.95V234.385V235.117V235.862H284.561V235.117V234.385V233.95C284.561 233.95 284.561 233.548 284.561 232.958C284.561 231.684 284.561 229.536 284.561 228.699C284.561 225.799 282.21 223.448 279.31 223.448C276.41 223.448 274.059 225.799 274.059 228.699Z" fill="#CA6035"/>
<path d="M298.887 229.655V235.862H309.389V229.655V223.448H298.887V229.655Z" fill="#CA6035"/>
<path d="M311.301 228.699C311.301 229.765 311.301 231.758 311.301 232.958C311.301 233.551 311.301 233.95 311.301 233.95V234.385V235.117V235.862H321.803V235.117V234.385V233.95C321.803 233.95 321.803 233.548 321.803 232.958C321.803 231.684 321.803 229.536 321.803 228.699C321.803 225.799 319.452 223.448 316.552 223.448C313.652 223.448 311.301 225.799 311.301 228.699Z" fill="#CA6035"/>
<path d="M125.094 242.069V248.276H135.596V242.069V235.862H125.094V242.069Z" fill="#CA6035"/>
<path d="M162.335 241.113C162.335 242.178 162.335 244.172 162.335 245.372C162.335 245.965 162.335 246.364 162.335 246.364V246.799V247.531V248.276H172.837V247.531V246.799V246.364C172.837 246.364 172.837 245.962 172.837 245.372C172.837 244.098 172.837 241.95 172.837 241.113C172.837 238.213 170.486 235.862 167.586 235.862C164.686 235.862 162.335 238.213 162.335 241.113Z" fill="#CA6035"/>
<path d="M185.251 243.025C185.251 241.96 185.251 239.966 185.251 238.766C185.251 238.173 185.251 237.774 185.251 237.774V237.339V236.607V235.862H174.749V236.607V237.339V237.774C174.749 237.774 174.749 238.176 174.749 238.766C174.749 240.04 174.749 242.188 174.749 243.025C174.749 245.925 177.1 248.276 180 248.276C182.9 248.276 185.251 245.925 185.251 243.025Z" fill="#CA6035"/>
<path d="M199.577 241.113C199.577 242.178 199.577 244.172 199.577 245.372C199.577 245.965 199.577 246.364 199.577 246.364V246.799V247.531V248.276H210.079V247.531V246.799V246.364C210.079 246.364 210.079 245.962 210.079 245.372C210.079 244.098 210.079 241.95 210.079 241.113C210.079 238.213 207.727 235.862 204.828 235.862C201.928 235.862 199.577 238.213 199.577 241.113Z" fill="#CA6035"/>
<path d="M224.404 242.069V248.276H234.906V242.069V235.862H224.404V242.069Z" fill="#CA6035"/>
<path d="M274.059 242.069V248.276H284.561V242.069V235.862H274.059V242.069Z" fill="#CA6035"/>
<path d="M309.389 243.025C309.389 241.96 309.389 239.966 309.389 238.766C309.389 238.173 309.389 237.774 309.389 237.774V237.339V236.607V235.862H298.887V236.607V237.339V237.774C298.887 237.774 298.887 238.176 298.887 238.766C298.887 240.04 298.887 242.188 298.887 243.025C298.887 245.925 301.238 248.276 304.138 248.276C307.038 248.276 309.389 245.925 309.389 243.025Z" fill="#CA6035"/>
<path d="M321.803 243.025C321.803 241.96 321.803 239.966 321.803 238.766C321.803 238.173 321.803 237.774 321.803 237.774V237.339V236.607V235.862H311.301V236.607V237.339V237.774C311.301 237.774 311.301 238.176 311.301 238.766C311.301 240.04 311.301 242.188 311.301 243.025C311.301 245.925 313.652 248.276 316.552 248.276C319.452 248.276 321.803 245.925 321.803 243.025Z" fill="#CA6035"/>
<path d="M125.094 254.483V260.69H135.596V254.483V248.276H125.094V254.483Z" fill="#CA6035"/>
<path d="M142.759 249.232C145.659 249.232 148.01 251.583 148.01 254.483C148.01 257.383 145.659 259.734 142.759 259.734C139.859 259.734 137.508 257.383 137.508 254.483C137.508 251.583 139.859 249.232 142.759 249.232Z" fill="#CA6035"/>
<path d="M155.172 249.232C158.073 249.232 160.423 251.583 160.423 254.483C160.423 257.383 158.073 259.734 155.172 259.734C152.272 259.734 149.921 257.383 149.921 254.483C149.921 251.583 152.272 249.232 155.172 249.232Z" fill="#CA6035"/>
<path d="M162.335 254.483V260.69H172.837V254.483V248.276H162.335V254.483Z" fill="#CA6035"/>
<path d="M199.577 254.483V260.69H210.079V254.483V248.276H199.577V254.483Z" fill="#CA6035"/>
<path d="M224.404 254.483V260.69H234.906V254.483V248.276H224.404V254.483Z" fill="#CA6035"/>
<path d="M254.483 249.232C257.383 249.232 259.734 251.583 259.734 254.483C259.734 257.383 257.383 259.734 254.483 259.734C251.583 259.734 249.232 257.383 249.232 254.483C249.232 251.583 251.583 249.232 254.483 249.232Z" fill="#CA6035"/>
<path d="M274.059 254.483V260.69H284.561V254.483V248.276H274.059V254.483Z" fill="#CA6035"/>
<path d="M323.714 253.527C323.714 254.592 323.714 256.585 323.714 257.786C323.714 258.378 323.714 258.778 323.714 258.778V259.212V259.945V260.69H334.217V259.945V259.212V258.778C334.217 258.778 334.217 258.375 334.217 257.786C334.217 256.512 334.217 254.364 334.217 253.527C334.217 250.627 331.865 248.276 328.966 248.276C326.065 248.276 323.714 250.627 323.714 253.527Z" fill="#CA6035"/>
<path d="M125.094 266.897V273.103H135.596V266.897V260.69H125.094V266.897Z" fill="#CA6035"/>
<path d="M162.335 266.897V273.103H172.837V266.897V260.69H162.335V266.897Z" fill="#CA6035"/>
<path d="M174.749 265.941C174.749 267.006 174.749 268.999 174.749 270.2C174.749 270.792 174.749 271.192 174.749 271.192V271.626V272.359V273.103H185.251V272.359V271.626V271.192C185.251 271.192 185.251 270.789 185.251 270.2C185.251 268.925 185.251 266.778 185.251 265.941C185.251 263.041 182.9 260.69 180 260.69C177.1 260.69 174.749 263.041 174.749 265.941Z" fill="#CA6035"/>
<path d="M192.414 261.646C195.314 261.646 197.665 263.997 197.665 266.897C197.665 269.797 195.314 272.148 192.414 272.148C189.514 272.148 187.163 269.797 187.163 266.897C187.163 263.997 189.514 261.646 192.414 261.646Z" fill="#CA6035"/>
<path d="M199.577 266.897V273.103H210.079V266.897V260.69H199.577V266.897Z" fill="#CA6035"/>
<path d="M211.99 265.941C211.99 267.006 211.99 268.999 211.99 270.2C211.99 270.792 211.99 271.192 211.99 271.192V271.626V272.359V273.103H222.492V272.359V271.626V271.192C222.492 271.192 222.492 270.789 222.492 270.2C222.492 268.925 222.492 266.778 222.492 265.941C222.492 263.041 220.141 260.69 217.241 260.69C214.341 260.69 211.99 263.041 211.99 265.941Z" fill="#CA6035"/>
<path d="M224.404 266.897V273.103H234.906V266.897V260.69H224.404V266.897Z" fill="#CA6035"/>
<path d="M274.059 266.897V273.103H284.561V266.897V260.69H274.059V266.897Z" fill="#CA6035"/>
<path d="M316.552 261.646C319.452 261.646 321.803 263.997 321.803 266.897C321.803 269.797 319.452 272.148 316.552 272.148C313.652 272.148 311.301 269.797 311.301 266.897C311.301 263.997 313.652 261.646 316.552 261.646Z" fill="#CA6035"/>
<path d="M334.217 267.852C334.217 266.787 334.217 264.794 334.217 263.593C334.217 263.001 334.217 262.601 334.217 262.601V262.167V261.435V260.69H323.714V261.435V262.167V262.601C323.714 262.601 323.714 263.004 323.714 263.593C323.714 264.868 323.714 267.016 323.714 267.852C323.714 270.752 326.066 273.103 328.966 273.103C331.866 273.103 334.217 270.752 334.217 267.852Z" fill="#CA6035"/>
<path d="M125.094 279.31V285.517H135.596V279.31V273.104H125.094V279.31Z" fill="#CA6035"/>
<path d="M162.335 279.31V285.517H172.837V279.31V273.104H162.335V279.31Z" fill="#CA6035"/>
<path d="M185.251 280.266C185.251 279.201 185.251 277.208 185.251 276.007C185.251 275.415 185.251 275.015 185.251 275.015V274.581V273.848V273.104H174.749V273.848V274.581V275.015C174.749 275.015 174.749 275.418 174.749 276.007C174.749 277.282 174.749 279.429 174.749 280.266C174.749 283.166 177.1 285.517 180 285.517C182.9 285.517 185.251 283.166 185.251 280.266Z" fill="#CA6035"/>
<path d="M199.577 279.31V285.517H210.079V279.31V273.104H199.577V279.31Z" fill="#CA6035"/>
<path d="M211.99 279.31V285.517H222.492V279.31V273.104H211.99V279.31Z" fill="#CA6035"/>
<path d="M234.906 280.266C234.906 279.201 234.906 277.208 234.906 276.007C234.906 275.415 234.906 275.015 234.906 275.015V274.581V273.848V273.104H224.404V273.848V274.581V275.015C224.404 275.015 224.404 275.418 224.404 276.007C224.404 277.282 224.404 279.429 224.404 280.266C224.404 283.166 226.755 285.517 229.655 285.517C232.555 285.517 234.906 283.166 234.906 280.266Z" fill="#CA6035"/>
<path d="M236.818 278.355C236.818 279.42 236.818 281.413 236.818 282.614C236.818 283.206 236.818 283.606 236.818 283.606V284.04V284.772V285.517H247.32V284.772V284.04V283.606C247.32 283.606 247.32 283.203 247.32 282.614C247.32 281.339 247.32 279.191 247.32 278.355C247.32 275.455 244.969 273.104 242.069 273.104C239.169 273.104 236.818 275.455 236.818 278.355Z" fill="#CA6035"/>
<path d="M249.232 278.355C249.232 279.42 249.232 281.413 249.232 282.614C249.232 283.206 249.232 283.606 249.232 283.606V284.04V284.772V285.517H259.734V284.772V284.04V283.606C259.734 283.606 259.734 283.203 259.734 282.614C259.734 281.339 259.734 279.191 259.734 278.355C259.734 275.455 257.383 273.104 254.483 273.104C251.583 273.104 249.232 275.455 249.232 278.355Z" fill="#CA6035"/>
<path d="M266.897 274.059C269.797 274.059 272.148 276.41 272.148 279.31C272.148 282.211 269.797 284.561 266.897 284.561C263.997 284.561 261.646 282.211 261.646 279.31C261.646 276.41 263.997 274.059 266.897 274.059Z" fill="#CA6035"/>
<path d="M284.561 280.266C284.561 279.201 284.561 277.208 284.561 276.007C284.561 275.415 284.561 275.015 284.561 275.015V274.581V273.848V273.104H274.059V273.848V274.581V275.015C274.059 275.015 274.059 275.418 274.059 276.007C274.059 277.282 274.059 279.429 274.059 280.266C274.059 283.166 276.41 285.517 279.31 285.517C282.21 285.517 284.561 283.166 284.561 280.266Z" fill="#CA6035"/>
<path d="M135.596 292.68C135.596 291.615 135.596 289.622 135.596 288.421C135.596 287.829 135.596 287.429 135.596 287.429V286.995V286.262V285.517H125.094V286.262V286.995V287.429C125.094 287.429 125.094 287.832 125.094 288.421C125.094 289.695 125.094 291.843 125.094 292.68C125.094 295.58 127.445 297.931 130.345 297.931C133.245 297.931 135.596 295.58 135.596 292.68Z" fill="#CA6035"/>
<path d="M155.172 286.473C158.073 286.473 160.423 288.824 160.423 291.724C160.423 294.624 158.073 296.975 155.172 296.975C152.272 296.975 149.921 294.624 149.921 291.724C149.921 288.824 152.272 286.473 155.172 286.473Z" fill="#CA6035"/>
<path d="M162.335 291.724V297.931H172.837V291.724V285.517H162.335V291.724Z" fill="#CA6035"/>
<path d="M192.414 286.473C195.314 286.473 197.665 288.824 197.665 291.724C197.665 294.624 195.314 296.975 192.414 296.975C189.514 296.975 187.163 294.624 187.163 291.724C187.163 288.824 189.514 286.473 192.414 286.473Z" fill="#CA6035"/>
<path d="M199.577 291.724V297.931H210.079V291.724V285.517H199.577V291.724Z" fill="#CA6035"/>
<path d="M222.492 292.68C222.492 291.615 222.492 289.622 222.492 288.421C222.492 287.829 222.492 287.429 222.492 287.429V286.995V286.262V285.517H211.99V286.262V286.995V287.429C211.99 287.429 211.99 287.832 211.99 288.421C211.99 289.695 211.99 291.843 211.99 292.68C211.99 295.58 214.342 297.931 217.241 297.931C220.141 297.931 222.492 295.58 222.492 292.68Z" fill="#CA6035"/>
<path d="M236.818 291.724V297.931H247.32V291.724V285.517H236.818V291.724Z" fill="#CA6035"/>
<path d="M259.734 292.68C259.734 291.615 259.734 289.622 259.734 288.421C259.734 287.829 259.734 287.429 259.734 287.429V286.995V286.262V285.517H249.232V286.262V286.995V287.429C249.232 287.429 249.232 287.832 249.232 288.421C249.232 289.695 249.232 291.843 249.232 292.68C249.232 295.58 251.583 297.931 254.483 297.931C257.383 297.931 259.734 295.58 259.734 292.68Z" fill="#CA6035"/>
<path d="M311.301 290.768C311.301 291.834 311.301 293.827 311.301 295.028C311.301 295.62 311.301 296.019 311.301 296.019V296.454V297.186V297.931H321.803V297.186V296.454V296.019C321.803 296.019 321.803 295.617 321.803 295.028C321.803 293.753 321.803 291.605 321.803 290.768C321.803 287.868 319.452 285.517 316.552 285.517C313.652 285.517 311.301 287.868 311.301 290.768Z" fill="#CA6035"/>
<path d="M323.714 290.768C323.714 291.834 323.714 293.827 323.714 295.028C323.714 295.62 323.714 296.019 323.714 296.019V296.454V297.186V297.931H334.217V297.186V296.454V296.019C334.217 296.019 334.217 295.617 334.217 295.028C334.217 293.753 334.217 291.605 334.217 290.768C334.217 287.868 331.865 285.517 328.966 285.517C326.065 285.517 323.714 287.868 323.714 290.768Z" fill="#CA6035"/>
<path d="M172.837 305.094C172.837 304.029 172.837 302.035 172.837 300.835C172.837 300.242 172.837 299.843 172.837 299.843V299.408V298.676V297.931H162.335V298.676V299.408V299.843C162.335 299.843 162.335 300.245 162.335 300.835C162.335 302.109 162.335 304.257 162.335 305.094C162.335 307.994 164.686 310.345 167.586 310.345C170.486 310.345 172.837 307.994 172.837 305.094Z" fill="#CA6035"/>
<path d="M199.577 304.138V310.345H210.079V304.138V297.931H199.577V304.138Z" fill="#CA6035"/>
<path d="M229.655 298.887C232.555 298.887 234.906 301.238 234.906 304.138C234.906 307.038 232.555 309.389 229.655 309.389C226.755 309.389 224.404 307.038 224.404 304.138C224.404 301.238 226.755 298.887 229.655 298.887Z" fill="#CA6035"/>
<path d="M236.818 304.138V310.345H247.32V304.138V297.931H236.818V304.138Z" fill="#CA6035"/>
<path d="M274.059 303.182C274.059 304.247 274.059 306.241 274.059 307.441C274.059 308.034 274.059 308.433 274.059 308.433V308.868V309.6V310.345H284.561V309.6V308.868V308.433C284.561 308.433 284.561 308.031 284.561 307.441C284.561 306.167 284.561 304.019 284.561 303.182C284.561 300.282 282.21 297.931 279.31 297.931C276.41 297.931 274.059 300.282 274.059 303.182Z" fill="#CA6035"/>
<path d="M291.724 298.887C294.624 298.887 296.975 301.238 296.975 304.138C296.975 307.038 294.624 309.389 291.724 309.389C288.824 309.389 286.473 307.038 286.473 304.138C286.473 301.238 288.824 298.887 291.724 298.887Z" fill="#CA6035"/>
<path d="M298.887 303.182C298.887 304.247 298.887 306.241 298.887 307.441C298.887 308.034 298.887 308.433 298.887 308.433V308.868V309.6V310.345H309.389V309.6V308.868V308.433C309.389 308.433 309.389 308.031 309.389 307.441C309.389 306.167 309.389 304.019 309.389 303.182C309.389 300.282 307.038 297.931 304.138 297.931C301.238 297.931 298.887 300.282 298.887 303.182Z" fill="#CA6035"/>
<path d="M311.301 304.138V310.345H321.803V304.138V297.931H311.301V304.138Z" fill="#CA6035"/>
<path d="M323.714 304.138V310.345H334.217V304.138V297.931H323.714V304.138Z" fill="#CA6035"/>
<path d="M174.749 315.596C174.749 316.661 174.749 318.654 174.749 319.855C174.749 320.447 174.749 320.847 174.749 320.847V321.282V322.014V322.759H185.251V322.014V321.282V320.847C185.251 320.847 185.251 320.444 185.251 319.855C185.251 318.581 185.251 316.433 185.251 315.596C185.251 312.696 182.9 310.345 180 310.345C177.1 310.345 174.749 312.696 174.749 315.596Z" fill="#CA6035"/>
<path d="M210.079 317.508C210.079 316.442 210.079 314.449 210.079 313.249C210.079 312.656 210.079 312.257 210.079 312.257V311.822V311.09V310.345H199.577V311.09V311.822V312.257C199.577 312.257 199.577 312.659 199.577 313.249C199.577 314.523 199.577 316.671 199.577 317.508C199.577 320.408 201.928 322.759 204.828 322.759C207.728 322.759 210.079 320.408 210.079 317.508Z" fill="#CA6035"/>
<path d="M247.32 317.508C247.32 316.442 247.32 314.449 247.32 313.249C247.32 312.656 247.32 312.257 247.32 312.257V311.822V311.09V310.345H236.818V311.09V311.822V312.257C236.818 312.257 236.818 312.659 236.818 313.249C236.818 314.523 236.818 316.671 236.818 317.508C236.818 320.408 239.169 322.759 242.069 322.759C244.969 322.759 247.32 320.408 247.32 317.508Z" fill="#CA6035"/>
<path d="M254.483 311.301C257.383 311.301 259.734 313.652 259.734 316.552C259.734 319.452 257.383 321.803 254.483 321.803C251.583 321.803 249.232 319.452 249.232 316.552C249.232 313.652 251.583 311.301 254.483 311.301Z" fill="#CA6035"/>
<path d="M266.897 311.301C269.797 311.301 272.148 313.652 272.148 316.552C272.148 319.452 269.797 321.803 266.897 321.803C263.997 321.803 261.646 319.452 261.646 316.552C261.646 313.652 263.997 311.301 266.897 311.301Z" fill="#CA6035"/>
<path d="M284.561 317.508C284.561 316.442 284.561 314.449 284.561 313.249C284.561 312.656 284.561 312.257 284.561 312.257V311.822V311.09V310.345H274.059V311.09V311.822V312.257C274.059 312.257 274.059 312.659 274.059 313.249C274.059 314.523 274.059 316.671 274.059 317.508C274.059 320.408 276.41 322.759 279.31 322.759C282.21 322.759 284.561 320.408 284.561 317.508Z" fill="#CA6035"/>
<path d="M309.389 317.508C309.389 316.442 309.389 314.449 309.389 313.249C309.389 312.656 309.389 312.257 309.389 312.257V311.822V311.09V310.345H298.887V311.09V311.822V312.257C298.887 312.257 298.887 312.659 298.887 313.249C298.887 314.523 298.887 316.671 298.887 317.508C298.887 320.408 301.238 322.759 304.138 322.759C307.038 322.759 309.389 320.408 309.389 317.508Z" fill="#CA6035"/>
<path d="M321.803 317.508C321.803 316.442 321.803 314.449 321.803 313.249C321.803 312.656 321.803 312.257 321.803 312.257V311.822V311.09V310.345H311.301V311.09V311.822V312.257C311.301 312.257 311.301 312.659 311.301 313.249C311.301 314.523 311.301 316.671 311.301 317.508C311.301 320.408 313.652 322.759 316.552 322.759C319.452 322.759 321.803 320.408 321.803 317.508Z" fill="#CA6035"/>
<path d="M323.714 316.552V322.759H334.217V316.552V310.345H323.714V316.552Z" fill="#CA6035"/>
<path d="M130.345 323.715C133.245 323.715 135.596 326.066 135.596 328.966C135.596 331.866 133.245 334.217 130.345 334.217C127.445 334.217 125.094 331.866 125.094 328.966C125.094 326.066 127.445 323.715 130.345 323.715Z" fill="#CA6035"/>
<path d="M142.759 323.715C145.659 323.715 148.01 326.066 148.01 328.966C148.01 331.866 145.659 334.217 142.759 334.217C139.859 334.217 137.508 331.866 137.508 328.966C137.508 326.066 139.859 323.715 142.759 323.715Z" fill="#CA6035"/>
<path d="M155.172 323.715C158.073 323.715 160.423 326.066 160.423 328.966C160.423 331.866 158.073 334.217 155.172 334.217C152.272 334.217 149.921 331.866 149.921 328.966C149.921 326.066 152.272 323.715 155.172 323.715Z" fill="#CA6035"/>
<path d="M167.586 323.715C170.486 323.715 172.837 326.066 172.837 328.966C172.837 331.866 170.486 334.217 167.586 334.217C164.686 334.217 162.335 331.866 162.335 328.966C162.335 326.066 164.686 323.715 167.586 323.715Z" fill="#CA6035"/>
<path d="M185.251 329.922C185.251 328.856 185.251 326.863 185.251 325.662C185.251 325.07 185.251 324.671 185.251 324.671V324.236V323.504V322.759H174.749V323.504V324.236V324.671C174.749 324.671 174.749 325.073 174.749 325.662C174.749 326.937 174.749 329.085 174.749 329.922C174.749 332.821 177.1 335.173 180 335.173C182.9 335.173 185.251 332.821 185.251 329.922Z" fill="#CA6035"/>
<path d="M229.655 323.715C232.555 323.715 234.906 326.066 234.906 328.966C234.906 331.866 232.555 334.217 229.655 334.217C226.755 334.217 224.404 331.866 224.404 328.966C224.404 326.066 226.755 323.715 229.655 323.715Z" fill="#CA6035"/>
<path d="M291.724 323.715C294.624 323.715 296.975 326.066 296.975 328.966C296.975 331.866 294.624 334.217 291.724 334.217C288.824 334.217 286.473 331.866 286.473 328.966C286.473 326.066 288.824 323.715 291.724 323.715Z" fill="#CA6035"/>
<path d="M334.217 329.922C334.217 328.856 334.217 326.863 334.217 325.662C334.217 325.07 334.217 324.671 334.217 324.671V324.236V323.504V322.759H323.714V323.504V324.236V324.671C323.714 324.671 323.714 325.073 323.714 325.662C323.714 326.937 323.714 329.085 323.714 329.922C323.714 332.821 326.066 335.173 328.966 335.173C331.866 335.173 334.217 332.821 334.217 329.922Z" fill="#CA6035"/>
<path d="M24.8276 82.3714V54.1552C24.8276 37.9846 38.1402 24.8276 54.495 24.8276H82.0577C98.4116 24.8276 111.724 37.9846 111.724 54.1552V111.724L54.495 111.707C38.1402 111.707 24.8276 98.5507 24.8276 82.3714ZM37.8621 82.3714C37.8621 91.36 45.323 98.6732 54.4984 98.6732L98.6897 98.6862V54.1552C98.6897 45.171 91.2287 37.8621 82.0577 37.8621H54.495C45.323 37.8621 37.8621 45.171 37.8621 54.1552V82.3714Z" fill="#CA6035"/>
<path d="M335.172 82.3714V54.1552C335.172 37.9846 321.86 24.8276 305.505 24.8276H277.942C261.588 24.8276 248.276 37.9846 248.276 54.1552V111.724L305.505 111.707C321.86 111.707 335.172 98.5507 335.172 82.3714ZM322.138 82.3714C322.138 91.36 314.677 98.6732 305.502 98.6732L261.31 98.6862V54.1552C261.31 45.171 268.771 37.8621 277.942 37.8621H305.505C314.677 37.8621 322.138 45.171 322.138 54.1552V82.3714Z" fill="#CA6035"/>
<path d="M24.8276 277.629V305.845C24.8276 322.015 38.1402 335.172 54.495 335.172H82.0577C98.4116 335.172 111.724 322.015 111.724 305.845V248.276L54.495 248.293C38.1402 248.293 24.8276 261.449 24.8276 277.629ZM37.8621 277.629C37.8621 268.64 45.323 261.327 54.4984 261.327L98.6897 261.314V305.845C98.6897 314.829 91.2287 322.138 82.0577 322.138H54.495C45.323 322.138 37.8621 314.829 37.8621 305.845V277.629Z" fill="#CA6035"/>
<path d="M86.8951 79.5553C83.6782 81.1418 81.1614 83.6429 79.496 86.8967H56.4387C56.1397 86.82 55.8682 86.7537 55.6429 86.699L55.5762 86.6826C54.9706 86.5329 54.3439 86.378 54.0102 86.2364C53.1384 85.8681 52.3261 85.076 51.5619 84.2578C50.851 83.5007 50.3888 82.6873 50.1527 81.7772L50.0931 81.5038C49.8909 80.5925 49.6623 79.5609 49.6552 78.9461L49.6976 66.8765L49.6567 56.996C52.8695 55.4114 55.3863 52.9114 57.0543 49.6554H80.1209C80.4266 49.7347 80.6981 49.8021 80.9089 49.8527L80.9756 49.8691C81.5818 50.0192 82.209 50.1741 82.5561 50.3209C83.4108 50.6802 84.2278 51.4761 84.982 52.2805C85.6996 53.0466 86.1651 53.8662 86.4009 54.7824L86.4586 55.0483C86.6604 55.9592 86.8895 56.9912 86.8966 57.606L86.8541 69.6756L86.8951 79.5553Z" fill="#CA6035"/>
<path d="M310.343 56.9967C307.126 55.4102 304.61 52.9091 302.944 49.6553H279.887C279.588 49.732 279.316 49.7983 279.091 49.853L279.024 49.8694C278.419 50.0191 277.792 50.174 277.458 50.3156C276.587 50.6839 275.774 51.476 275.01 52.2942C274.299 53.0513 273.837 53.8647 273.601 54.7748L273.541 55.0482C273.339 55.9595 273.111 56.9911 273.103 57.6059L273.146 69.6755L273.105 79.556C276.318 81.1406 278.835 83.6406 280.503 86.8967H303.569C303.875 86.8173 304.146 86.7499 304.357 86.6993L304.424 86.6829C305.03 86.5328 305.657 86.3779 306.004 86.2311C306.859 85.8718 307.676 85.0759 308.43 84.2715C309.148 83.5055 309.613 82.6858 309.849 81.7696L309.907 81.5037C310.109 80.5928 310.338 79.5608 310.345 78.946L310.302 66.8764L310.343 56.9967Z" fill="#CA6035"/>
<path d="M86.8951 280.445C83.6782 278.858 81.1614 276.357 79.496 273.104H56.4387C56.1397 273.18 55.8682 273.247 55.6429 273.301L55.5762 273.318C54.9706 273.467 54.3439 273.622 54.0102 273.764C53.1384 274.132 52.3261 274.924 51.5619 275.742C50.851 276.5 50.3888 277.313 50.1527 278.223L50.0931 278.496C49.8909 279.408 49.6623 280.439 49.6552 281.054L49.6976 293.124L49.6567 303.004C52.8695 304.589 55.3863 307.089 57.0543 310.345H80.1209C80.4266 310.266 80.6981 310.198 80.9089 310.148L80.9756 310.131C81.5818 309.981 82.209 309.826 82.5561 309.679C83.4108 309.32 84.2278 308.524 84.982 307.72C85.6996 306.954 86.1651 306.134 86.4009 305.218L86.4586 304.952C86.6604 304.041 86.8895 303.009 86.8966 302.394L86.8541 290.325L86.8951 280.445Z" fill="#CA6035"/>
</g>
<defs>
<clipPath id="clip0_68_1457">
<rect width="360" height="360" rx="44" fill="white"/>
</clipPath>
</defs>
</svg>
